HIERARCHY
ROOT Hips
{
	OFFSET 0.000000 88.474243 0.000000
	CHANNELS 6 Xposition Yposition Zposition Zrotation Yrotation Xrotation 
	JOINT Hips_Spine
	{
		OFFSET 0.000000 0.000000 0.000000
		CHANNELS 3 Zrotation Yrotation Xrotation
		JOINT Spine
		{
			OFFSET 0.005100 8.711998 -0.691000
			CHANNELS 3 Zrotation Yrotation Xrotation
			JOINT Spine1
			{
				OFFSET -0.009200 8.660301 -1.275000
				CHANNELS 3 Zrotation Yrotation Xrotation
				JOINT Spine2
				{
					OFFSET 0.006300 9.852501 -1.857000
					CHANNELS 3 Zrotation Yrotation Xrotation
					JOINT Spine2_Neck
					{
						OFFSET 0.000000 0.000000 0.000000
						CHANNELS 3 Zrotation Yrotation Xrotation
						JOINT Neck
						{
							OFFSET 0.016300 11.420799 -0.263300
							CHANNELS 3 Zrotation Yrotation Xrotation
							End Site #name: Head
							{
								OFFSET -0.019200 9.262405 2.362500
							}
						}
					}
					JOINT Spine2_LeftShoulder
					{
						OFFSET 0.000000 0.000000 0.000000
						CHANNELS 3 Zrotation Yrotation Xrotation
						JOINT LeftShoulder
						{
							OFFSET 5.616900 6.732201 -0.345700
							CHANNELS 3 Zrotation Yrotation Xrotation
							JOINT LeftArm
							{
								OFFSET 10.664888 -0.183372 -2.440700
								CHANNELS 3 Zrotation Yrotation Xrotation
								JOINT LeftForeArm
								{
									OFFSET 27.459126 0.000000 0.000000
									CHANNELS 3 Zrotation Yrotation Xrotation
									End Site #name: LeftHand
									{
										OFFSET 21.306858 0.000000 0.000000
									}
								}
							}
						}
					}
					JOINT Spine2_RightShoulder
					{
						OFFSET 0.000000 0.000000 0.000000
						CHANNELS 3 Zrotation Yrotation Xrotation
						JOINT RightShoulder
						{
							OFFSET -5.580300 6.737503 -0.344400
							CHANNELS 3 Zrotation Yrotation Xrotation
							JOINT RightArm
							{
								OFFSET -10.679335 -0.188484 -2.383900
								CHANNELS 3 Zrotation Yrotation Xrotation
								JOINT RightForeArm
								{
									OFFSET -27.503529 0.000000 0.000000
									CHANNELS 3 Zrotation Yrotation Xrotation
									End Site #name: RightHand
									{
										OFFSET -21.306808 0.000000 0.000000
									}
								}
							}
						}
					}
				}
			}
		}
	}
	JOINT Hips_LeftUpLeg
	{
		OFFSET 0.000000 0.000000 0.000000
		CHANNELS 3 Zrotation Yrotation Xrotation
		JOINT LeftUpLeg
		{
			OFFSET 6.857700 -6.739601 0.312100
			CHANNELS 3 Zrotation Yrotation Xrotation
			JOINT LeftLeg
			{
				OFFSET -0.367590 -34.731552 -4.572400
				CHANNELS 3 Zrotation Yrotation Xrotation
				End Site #name: LeftFoot
				{
					OFFSET 0.367590 -34.656704 -6.067400
				}
			}
		}
	}
	JOINT Hips_RightUpLeg
	{
		OFFSET 0.000000 0.000000 0.000000
		CHANNELS 3 Zrotation Yrotation Xrotation
		JOINT RightUpLeg
		{
			OFFSET -6.876100 -6.733299 0.301000
			CHANNELS 3 Zrotation Yrotation Xrotation
			JOINT RightLeg
			{
				OFFSET 0.347353 -34.795158 -4.515900
				CHANNELS 3 Zrotation Yrotation Xrotation
				End Site #name: RightFoot
				{
					OFFSET -0.347353 -34.589367 -6.070300
				}
			}
		}
	}
}
MOTION
Frames: 9
Frame Time: 0.041667
0.157510 0.361406 -0.773654 -177.543626 77.641436 177.319462 -0.000000 0.000000 0.000000 -4.972076 1.577481 -0.110476 0.408426 0.368495 -1.330120 0.000000 0.000000 0.000000 -1.090782 2.028368 1.558398 -2.736713 -2.884029 0.487874 -4.288486 3.188010 4.191061 -7.712427 -3.007592 0.038023 -53.126563 -4.673064 0.218544 -10.017748 -72.386275 11.306208 1.111974 1.671433 1.338744 10.869665 7.649782 2.749066 81.277908 28.420781 4.546713 -171.388718 60.981609 -173.740473 -0.000000 0.000000 0.000000 -9.382395 -5.937501 -8.327980 15.448201 22.350544 22.808606 -0.000000 -0.000000 -0.000000 2.613096 2.517703 -16.617509 12.662948 14.509091 23.663387 
0.435868 0.187930 -1.470042 50.038085 86.750759 43.188646 -0.000000 0.000000 0.000000 -2.132346 3.276249 4.639713 0.043078 0.485848 2.184751 0.000000 0.000000 0.000000 -0.980126 1.290652 3.380731 -9.905167 0.307073 -0.111344 -1.783064 1.241222 6.517061 -7.368487 -6.718255 0.207999 -59.703852 5.925199 5.106285 -167.227961 -68.411774 168.610405 -0.195068 3.358281 1.676849 13.258063 5.546640 3.597346 72.066229 48.376214 6.077434 -171.659090 47.618558 -178.956757 -0.000000 0.000000 0.000000 -7.561021 -2.304960 -9.806572 12.896083 19.316930 24.694965 -0.000000 -0.000000 -0.000000 3.581114 6.578980 -13.963090 7.124965 9.221985 8.218979 
0.567500 0.200310 -2.197793 48.564193 86.160775 40.330189 -0.000000 0.000000 0.000000 -0.722340 3.718397 4.861662 -0.013982 0.098388 1.583406 0.000000 0.000000 0.000000 -2.087182 1.325134 4.344613 -12.205287 2.829412 -0.270277 -2.025206 0.274362 5.259863 -8.166283 -6.623084 0.255294 -61.898088 5.199645 9.982812 -169.173306 -59.882072 171.145360 -0.564402 2.975275 3.125663 10.570142 8.581750 4.059874 71.837342 37.905740 11.166057 -174.786164 50.644147 178.571683 -0.000000 0.000000 0.000000 -5.758594 0.459157 -11.438917 9.195717 14.894501 26.903967 -0.000000 -0.000000 -0.000000 -5.285845 8.578143 -8.646040 5.986899 8.544614 7.499294 
0.662001 0.182463 -3.010794 51.857674 85.099266 42.119972 -0.000000 0.000000 0.000000 -0.428919 4.050837 5.118785 -0.104768 -0.349137 0.867682 0.000000 0.000000 0.000000 -2.376557 1.318408 5.887743 -10.063186 4.371376 5.229611 -1.904165 -0.244411 4.646546 -8.098237 -6.419059 0.228052 -61.556080 6.623346 12.005473 -166.981616 -63.037255 169.370529 -0.877157 2.731198 3.504115 8.859590 10.994623 3.932905 72.915039 35.996269 14.033212 -177.025065 49.707361 177.497277 -0.000000 0.000000 0.000000 -2.586635 3.762824 -10.577498 7.701089 13.481730 26.941658 -0.000000 -0.000000 0.000000 -6.601886 9.534966 -6.317245 5.293952 6.275609 15.610705 
0.803599 0.132189 -3.853996 37.060347 84.511925 26.516455 -0.000000 0.000000 0.000000 -0.080816 4.224946 5.193655 -0.006755 -0.850986 0.549790 0.000000 0.000000 0.000000 -2.125551 1.286298 8.104215 -8.243900 6.026065 10.147003 -1.518286 -0.431558 4.154276 -7.821225 -5.189356 0.100146 -60.803744 11.405058 13.719723 -164.887886 -65.487607 167.878838 -0.996935 2.343281 3.616674 8.678906 12.570932 3.739139 70.090938 33.154253 16.754221 -179.199387 52.955816 176.784808 -0.000000 0.000000 0.000000 -1.262285 4.457168 -8.900876 7.036367 12.052138 26.073137 -0.000000 -0.000000 0.000000 -6.060468 9.898224 -2.625842 3.976421 3.938494 23.607957 
0.974851 0.022224 -4.722436 24.618286 83.245813 14.112524 -0.000000 0.000000 0.000000 0.216658 4.399458 5.321282 0.108205 -1.164581 0.543672 0.000000 0.000000 0.000000 -1.802068 1.165161 9.854294 -6.843344 7.180414 13.414760 -1.139107 -0.749071 3.971452 -7.662548 -4.659325 0.022924 -59.801436 14.114099 15.424279 -163.439294 -67.382384 166.897919 -1.031707 2.104081 3.918917 8.867612 12.836887 3.661792 68.432000 29.149072 18.899758 179.219770 56.444807 176.290999 -0.000000 0.000000 0.000000 -0.341718 5.305387 -8.693574 6.319936 11.023434 25.381678 -0.000000 -0.000000 0.000000 -4.519751 9.277880 -0.640745 2.320916 1.757086 28.874088 
1.154271 -0.169136 -5.606888 17.696607 81.804752 7.786724 -0.000000 0.000000 0.000000 0.281540 4.362682 5.417766 0.167056 -1.343243 0.679780 0.000000 0.000000 0.000000 -1.511779 0.944225 11.067053 -5.903489 7.633167 15.222806 -0.806494 -1.018943 3.864280 -7.409666 -5.021151 -0.034409 -58.982521 13.999524 16.780129 -162.365620 -69.292016 166.150829 -1.035221 1.977682 4.335839 8.919246 11.881970 3.615128 69.172221 24.005691 20.153724 178.466475 57.971067 176.017475 -0.000000 0.000000 0.000000 0.127922 6.250013 -9.956250 5.655559 10.501846 25.615505 -0.000000 -0.000000 0.000000 -2.522891 7.884435 -1.714591 0.922279 0.009874 31.517399 
1.356446 -0.460646 -6.491775 13.876520 79.600091 5.766074 -0.000000 0.000000 0.000000 0.143421 4.106612 5.217014 0.159143 -1.461958 0.789565 0.000000 0.000000 0.000000 -1.355317 0.628768 11.672902 -5.230719 7.547148 15.904105 -0.559884 -1.363595 3.727579 -7.200300 -6.234525 -0.088710 -58.702953 11.778329 17.927126 -162.899636 -69.893776 166.823570 -1.090150 1.801333 4.701642 8.992161 9.977390 3.572546 70.902096 18.547835 20.523110 178.325226 58.049377 176.040721 -0.000000 0.000000 0.000000 -0.296587 6.477973 -11.992263 5.017860 10.216565 26.162943 -0.000000 -0.000000 0.000000 -1.225904 6.368215 -5.959123 -0.018210 -1.230681 30.926633 
1.606229 -0.746460 -7.331611 10.836338 75.930711 5.773047 -0.000000 0.000000 0.000000 -0.147733 3.660946 4.771415 0.119067 -1.552235 0.776317 0.000000 0.000000 0.000000 -1.283372 0.161707 11.660887 -4.926120 6.988558 15.681177 -0.395191 -1.820329 3.503915 -6.951264 -8.083962 -0.207426 -59.223380 7.847481 19.022414 -164.845894 -69.254620 168.700907 -1.180982 1.546583 4.998244 8.948373 7.364013 3.529824 73.132729 13.330684 20.068140 178.515225 58.346019 176.689755 -0.000000 0.000000 0.000000 -1.338079 5.536897 -14.510376 4.852592 10.579160 26.669942 -0.000000 -0.000000 0.000000 -0.957256 5.043498 -12.089708 -0.401227 -2.103124 26.345844 
